<svg width="24" height="21" viewBox="0 0 24 21" fill="none" xmlns="http://www.w3.org/2000/svg">
<path fill-rule="evenodd" clip-rule="evenodd" d="M9.93943 0.136239C9.7763 0.0450366 9.59216 -0.00191031 9.40528 5.95309e-05C9.2184 0.00202937 9.03528 0.0528475 8.87412 0.147468C8.71295 0.242089 8.57934 0.377221 8.48654 0.539447C8.39375 0.701672 8.345 0.885349 8.34514 1.07224V12.5888C7.77713 12.7641 7.26052 13.0755 6.84018 13.4958C6.41984 13.9162 6.10848 14.4328 5.93314 15.0008H1.07143C0.787268 15.0008 0.514746 15.1137 0.313814 15.3146C0.112882 15.5156 0 15.7881 0 16.0722C0 16.3564 0.112882 16.6289 0.313814 16.8299C0.514746 17.0308 0.787268 17.1437 1.07143 17.1437H5.93314C6.16279 17.888 6.62486 18.5391 7.25161 19.0016C7.87835 19.4642 8.63679 19.7137 9.41571 19.7137C10.1946 19.7137 10.9531 19.4642 11.5798 19.0016C12.2066 18.5391 12.6686 17.888 12.8983 17.1437H17.9606V19.9294C17.9605 20.1413 18.0233 20.3485 18.1411 20.5247C18.2588 20.701 18.4262 20.8383 18.622 20.9194C18.8178 21.0006 19.0332 21.0218 19.2411 20.9804C19.4489 20.9391 19.6399 20.837 19.7897 20.6871L23.6469 16.83C23.7464 16.7305 23.8253 16.6123 23.8792 16.4823C23.933 16.3523 23.9608 16.213 23.9608 16.0722C23.9608 15.9315 23.933 15.7922 23.8792 15.6622C23.8253 15.5321 23.7464 15.414 23.6469 15.3145L19.7897 11.4574C19.6399 11.3075 19.4489 11.2054 19.2411 11.1641C19.0332 11.1227 18.8178 11.1439 18.622 11.225C18.4262 11.3061 18.2588 11.4435 18.1411 11.6197C18.0233 11.796 17.9605 12.0032 17.9606 12.2151V15.0008H12.8966C12.7214 14.433 12.4103 13.9165 11.9903 13.4962C11.5702 13.0759 11.054 12.7644 10.4863 12.5888V9.84424L17.2234 6.07967C17.3902 5.98678 17.5291 5.85105 17.6258 5.68649C17.7225 5.52193 17.7735 5.33453 17.7735 5.14367C17.7735 4.9528 17.7225 4.7654 17.6258 4.60085C17.5291 4.43629 17.3902 4.30055 17.2234 4.20767L9.93943 0.136239ZM10.9166 16.0722C10.917 15.6744 10.7594 15.2927 10.4784 15.0111C10.3393 14.8716 10.1741 14.761 9.99218 14.6854C9.81028 14.6098 9.61527 14.5707 9.41829 14.5705C9.2213 14.5703 9.0262 14.6089 8.84413 14.684C8.66206 14.7592 8.49657 14.8695 8.35712 15.0087C8.0755 15.2896 7.91703 15.671 7.91657 16.0688V16.0757C7.9168 16.2726 7.95582 16.4677 8.03141 16.6496C8.107 16.8315 8.21768 16.9967 8.35712 17.1358C8.49657 17.275 8.66206 17.3853 8.84413 17.4604C9.0262 17.5356 9.2213 17.5742 9.41829 17.574C9.61527 17.5737 9.81028 17.5347 9.99218 17.4591C10.1741 17.3835 10.3393 17.2728 10.4784 17.1334C10.6176 16.994 10.7279 16.8285 10.803 16.6464C10.8782 16.4643 10.9168 16.2692 10.9166 16.0722ZM10.488 7.38938V2.89795L14.5063 5.14367L10.488 7.38938Z" fill="#1C4C70"/>
</svg>
