<svg width="22" height="22" viewBox="0 0 22 22" fill="none" xmlns="http://www.w3.org/2000/svg">
<path d="M20.6813 0L13.7719 2.59453L16.2516 4.15781C11.8219 9.73594 5.41406 13.1719 0 14.4797L1.53375 17.2734C7.61719 15.2906 14.0578 11.7141 18.2063 5.39531L20.0953 6.58594L20.6813 0ZM21.0422 5.47031L20.8172 8.03906L18.4125 6.52031C18.3281 6.64688 18.2391 6.76875 18.15 6.89531V21.8766H21.8063V5.47031H21.0422ZM13.9828 11.4703C13.3875 11.9859 12.7734 12.4734 12.15 12.9328V21.8766H15.8063V11.4703H13.9828ZM8.18438 15.4078C7.50938 15.7641 6.83438 16.0922 6.15 16.4016V21.8766H9.80625V15.4078H8.18438ZM0.15 17.4703V21.8766H3.80625V17.4703H3.54C2.84531 17.7281 2.15109 17.9672 1.46109 18.1875L1.13016 18.2906L0.680156 17.4703H0.15Z" fill="#1C4C70"/>
</svg>
